<svg width="116" height="40" viewBox="0 0 116 40" fill="none" xmlns="http://www.w3.org/2000/svg">
<g clip-path="url(#clip0)">
<path d="M5.64073 7.9078H27.9382V14.9589H33.5789V2.30649H19.643V0.197754H14.0023V2.30649H0V14.9589H5.64073V7.9078Z" fill="#333333"/>
<path d="M26.8765 12.1912V9.35754H7.16708V14.9589H20.1739C19.444 15.7496 18.3822 16.2109 17.1877 16.2109H10.817L9.95426 17.463C8.42795 19.7694 5.83984 21.1533 3.05266 21.1533H0.199113V26.7546H3.05266C7.23344 26.7546 11.0824 24.9094 13.7369 21.8122H15.7277V22.4053C12.4096 26.4251 7.43252 28.7315 2.18996 28.7974H0.132751L0.199113 34.3987H2.25632C7.10071 34.3328 11.746 32.8172 15.6614 30.1154C15.1305 32.5536 12.9405 34.3987 10.2861 34.3987V40C16.3913 40 21.4348 35.0577 21.4348 28.9292V20.8897C24.6865 19.3081 26.8765 16.0132 26.8765 12.1912Z" fill="#333333"/>
<path d="M28.7346 27.15V25.898C31.6545 24.0528 33.579 20.8238 33.579 17.1335H27.9383C27.9383 19.7695 25.7483 21.9441 23.0939 21.9441V27.5454C23.293 33.3444 28.1373 38.0232 34.0435 38.0232V32.4218C31.1236 32.4218 28.7346 30.0495 28.7346 27.15Z" fill="#333333"/>
<path d="M66.3616 13.2455C66.3616 14.3658 65.2998 15.2884 63.9726 15.2884V20.8897C68.4188 20.8897 72.0687 17.463 72.0687 13.2455V5.79907V3.03136V0.197754H43.4005V5.79907H66.3616V13.2455Z" fill="#333333"/>
<path d="M59.5263 25.832V18.5833H53.8856V27.4795C53.8856 31.3015 50.7666 34.3987 46.9176 34.3987H43.3341V40.0001H46.9176C51.0984 40.0001 54.8147 37.9572 57.1373 34.7941C59.7254 37.9572 63.7071 40.0001 68.1533 40.0001H71.6705V34.3987H68.1533C63.3753 34.3987 59.5263 30.5767 59.5263 25.832Z" fill="#333333"/>
<path d="M63.9725 7.90771H49.2402V13.509H63.9725V7.90771Z" fill="#333333"/>
<path d="M49.3731 25.832C49.3731 23.7232 47.6477 22.0099 45.5241 22.0099C43.4006 22.0099 41.6752 23.7232 41.6752 25.832C41.6752 27.9407 43.4006 29.654 45.5241 29.654C47.6477 29.654 49.3731 27.9407 49.3731 25.832Z" fill="#333333"/>
<path d="M69.4807 22.0099C67.3571 22.0099 65.6317 23.7232 65.6317 25.832C65.6317 27.9407 67.3571 29.654 69.4807 29.654C71.6043 29.654 73.3297 27.9407 73.3297 25.832C73.3297 23.7232 71.6043 22.0099 69.4807 22.0099Z" fill="#333333"/>
<path d="M90.119 18.3196V8.03954H103.723L105.249 16.6063C105.382 17.3311 105.581 17.9901 105.78 18.6491C105.117 18.7809 104.519 18.9127 103.79 18.9127H102.86V24.514H103.79C105.382 24.514 106.909 24.2504 108.302 23.7891C109.563 25.5025 111.156 27.0181 112.947 28.1384L116 23.3937C114.938 22.7348 113.943 21.8122 113.146 20.8896C113.943 20.1647 114.739 19.3081 115.336 18.3196L110.625 15.2224L109.364 8.03954H114.938V2.43822H108.368L107.97 0L102.396 0.988468L102.661 2.43822H84.4119V18.2537C84.4119 19.6376 83.2838 20.7578 81.8902 20.7578V26.3591C86.4691 26.425 90.119 22.8007 90.119 18.3196Z" fill="#333333"/>
<path d="M93.7688 27.2817L88.3935 28.9951C90.5171 35.5849 96.6887 40 103.657 40H106.112V34.3987H103.657C99.1441 34.3987 95.1624 31.5651 93.7688 27.2817Z" fill="#333333"/>
<path d="M92.3089 21.4827H101.135V14.3657L96.6888 11.5321L92.3089 14.3657V21.4827Z" fill="#333333"/>
<path d="M86.3533 39.9552C88.4516 39.6171 89.8765 37.6538 89.536 35.5702C89.1954 33.4865 87.2184 32.0715 85.12 32.4097C83.0217 32.7478 81.5968 34.7111 81.9373 36.7947C82.2779 38.8784 84.255 40.2934 86.3533 39.9552Z" fill="#333333"/>
<path d="M111.753 32.4218C109.629 32.4218 107.904 34.1351 107.904 36.2438C107.904 38.3526 109.629 40.0659 111.753 40.0659C113.876 40.0659 115.602 38.3526 115.602 36.2438C115.602 34.1351 113.876 32.4218 111.753 32.4218Z" fill="#333333"/>
</g>
<defs>
<clipPath id="clip0">
<rect width="116" height="40" fill="white"/>
</clipPath>
</defs>
</svg>
